<mxfile host="app.diagrams.net" agent="Mozilla/5.0 (Macintosh; Intel Mac OS X 10_15_7) AppleWebKit/537.36 (KHTML, like Gecko) Chrome/135.0.0.0 Safari/537.36" version="26.2.12">
  <diagram name="Page-1" id="FhWYNo3kNSt5EqrWuM2n">
    <mxGraphModel dx="889" dy="495" grid="1" gridSize="10" guides="1" tooltips="1" connect="1" arrows="1" fold="1" page="1" pageScale="1" pageWidth="850" pageHeight="1100" math="0" shadow="0">
      <root>
        <mxCell id="0" />
        <mxCell id="1" parent="0" />
        <mxCell id="2Vbw8zLCdz-sCToTA-tu-1" value="SQL QA Agent Processing Pipeline" style="text;html=1;align=center;verticalAlign=middle;resizable=0;points=[];autosize=1;strokeColor=none;fillColor=none;" vertex="1" parent="1">
          <mxGeometry x="340" y="130" width="210" height="30" as="geometry" />
        </mxCell>
        <mxCell id="2Vbw8zLCdz-sCToTA-tu-7" style="edgeStyle=orthogonalEdgeStyle;rounded=0;orthogonalLoop=1;jettySize=auto;html=1;exitX=1;exitY=0.5;exitDx=0;exitDy=0;entryX=0;entryY=0.5;entryDx=0;entryDy=0;fillColor=#dae8fc;strokeColor=#000000;" edge="1" parent="1" source="2Vbw8zLCdz-sCToTA-tu-2" target="2Vbw8zLCdz-sCToTA-tu-3">
          <mxGeometry relative="1" as="geometry" />
        </mxCell>
        <mxCell id="2Vbw8zLCdz-sCToTA-tu-2" value="Question Analysis&lt;br&gt;&lt;font style=&quot;font-size: 9px;&quot;&gt;Patient Context&lt;/font&gt;" style="rounded=1;whiteSpace=wrap;html=1;fillColor=#dae8fc;strokeColor=#6c8ebf;" vertex="1" parent="1">
          <mxGeometry x="50" y="180" width="100" height="100" as="geometry" />
        </mxCell>
        <mxCell id="2Vbw8zLCdz-sCToTA-tu-8" style="edgeStyle=orthogonalEdgeStyle;rounded=0;orthogonalLoop=1;jettySize=auto;html=1;entryX=0;entryY=0.5;entryDx=0;entryDy=0;fillColor=#dae8fc;strokeColor=#000000;" edge="1" parent="1" source="2Vbw8zLCdz-sCToTA-tu-3" target="2Vbw8zLCdz-sCToTA-tu-4">
          <mxGeometry relative="1" as="geometry" />
        </mxCell>
        <mxCell id="2Vbw8zLCdz-sCToTA-tu-3" value="SQL Generation&lt;br&gt;&lt;font style=&quot;font-size: 9px;&quot;&gt;Deepseek-r1:8b LLM&lt;/font&gt;" style="rounded=1;whiteSpace=wrap;html=1;fillColor=#dae8fc;strokeColor=#6c8ebf;" vertex="1" parent="1">
          <mxGeometry x="210" y="180" width="100" height="100" as="geometry" />
        </mxCell>
        <mxCell id="2Vbw8zLCdz-sCToTA-tu-9" style="edgeStyle=orthogonalEdgeStyle;rounded=0;orthogonalLoop=1;jettySize=auto;html=1;fillColor=#dae8fc;strokeColor=#000000;" edge="1" parent="1" source="2Vbw8zLCdz-sCToTA-tu-4" target="2Vbw8zLCdz-sCToTA-tu-5">
          <mxGeometry relative="1" as="geometry" />
        </mxCell>
        <mxCell id="2Vbw8zLCdz-sCToTA-tu-17" style="edgeStyle=orthogonalEdgeStyle;rounded=0;orthogonalLoop=1;jettySize=auto;html=1;entryX=0.5;entryY=1;entryDx=0;entryDy=0;exitX=0.5;exitY=1;exitDx=0;exitDy=0;curved=1;dashed=1;strokeColor=#FF3333;" edge="1" parent="1" source="2Vbw8zLCdz-sCToTA-tu-4" target="2Vbw8zLCdz-sCToTA-tu-3">
          <mxGeometry relative="1" as="geometry">
            <Array as="points">
              <mxPoint x="455" y="330" />
              <mxPoint x="260" y="330" />
            </Array>
          </mxGeometry>
        </mxCell>
        <mxCell id="2Vbw8zLCdz-sCToTA-tu-4" value="Query Validation&lt;br&gt;&amp;amp; Debugging&lt;br&gt;&lt;font style=&quot;font-size: 9px;&quot;&gt;Security Checks&lt;/font&gt;" style="rounded=1;whiteSpace=wrap;html=1;fillColor=#dae8fc;strokeColor=#6c8ebf;" vertex="1" parent="1">
          <mxGeometry x="405" y="180" width="100" height="100" as="geometry" />
        </mxCell>
        <mxCell id="2Vbw8zLCdz-sCToTA-tu-10" style="edgeStyle=orthogonalEdgeStyle;rounded=0;orthogonalLoop=1;jettySize=auto;html=1;entryX=0;entryY=0.5;entryDx=0;entryDy=0;fillColor=#dae8fc;strokeColor=#000000;" edge="1" parent="1" source="2Vbw8zLCdz-sCToTA-tu-5" target="2Vbw8zLCdz-sCToTA-tu-6">
          <mxGeometry relative="1" as="geometry" />
        </mxCell>
        <mxCell id="2Vbw8zLCdz-sCToTA-tu-5" value="Query Execution&lt;br&gt;&lt;font style=&quot;font-size: 9px;&quot;&gt;MySQL Database&lt;/font&gt;" style="rounded=1;whiteSpace=wrap;html=1;fillColor=#dae8fc;strokeColor=#6c8ebf;" vertex="1" parent="1">
          <mxGeometry x="560" y="180" width="100" height="100" as="geometry" />
        </mxCell>
        <mxCell id="2Vbw8zLCdz-sCToTA-tu-6" value="Result Display&lt;br&gt;&lt;font style=&quot;font-size: 9px;&quot;&gt;Tabular Format&lt;/font&gt;" style="rounded=1;whiteSpace=wrap;html=1;fillColor=#dae8fc;strokeColor=#6c8ebf;" vertex="1" parent="1">
          <mxGeometry x="700" y="180" width="100" height="100" as="geometry" />
        </mxCell>
        <mxCell id="2Vbw8zLCdz-sCToTA-tu-11" value="Input Query&lt;br&gt;&lt;font style=&quot;font-size: 9px;&quot;&gt;&quot;How many encounters does this patient have?&quot;&lt;/font&gt;" style="rounded=1;whiteSpace=wrap;html=1;fillColor=#f5f5f5;fontColor=#333333;strokeColor=#666666;" vertex="1" parent="1">
          <mxGeometry x="40" y="360" width="120" height="60" as="geometry" />
        </mxCell>
        <mxCell id="2Vbw8zLCdz-sCToTA-tu-12" value="Generated SQL&lt;br&gt;&lt;font style=&quot;font-size: 9px;&quot;&gt;SELECT COUNT(*) AS encounter_count FROM encounters WHERE PATIENT = &quot;...&quot;&lt;/font&gt;" style="rounded=1;whiteSpace=wrap;html=1;fillColor=#f5f5f5;fontColor=#333333;strokeColor=#666666;" vertex="1" parent="1">
          <mxGeometry x="180" y="360" width="160" height="60" as="geometry" />
        </mxCell>
        <mxCell id="2Vbw8zLCdz-sCToTA-tu-13" value="Validation Checks&lt;br&gt;&lt;ul&gt;&lt;li style=&quot;text-align: left;&quot;&gt;&lt;font size=&quot;1&quot;&gt;Authorized tables &amp;amp; columns&amp;nbsp;&lt;/font&gt;&lt;/li&gt;&lt;li style=&quot;text-align: left;&quot;&gt;&lt;font size=&quot;1&quot;&gt;SELECT operations only&lt;/font&gt;&lt;/li&gt;&lt;li style=&quot;text-align: left;&quot;&gt;&lt;font size=&quot;1&quot;&gt;Table alias resolution&lt;/font&gt;&lt;/li&gt;&lt;li style=&quot;text-align: left;&quot;&gt;&lt;font size=&quot;1&quot;&gt;Column validation&lt;/font&gt;&lt;/li&gt;&lt;li style=&quot;text-align: left;&quot;&gt;&lt;font size=&quot;1&quot;&gt;Patient context enforcement&lt;/font&gt;&lt;/li&gt;&lt;/ul&gt;" style="rounded=1;whiteSpace=wrap;html=1;fillColor=#f5f5f5;fontColor=#333333;strokeColor=#666666;" vertex="1" parent="1">
          <mxGeometry x="360" y="340" width="190" height="120" as="geometry" />
        </mxCell>
        <mxCell id="2Vbw8zLCdz-sCToTA-tu-14" value="Result Table&lt;br&gt;&lt;div style=&quot;text-align: left;&quot;&gt;&lt;font size=&quot;1&quot;&gt;+------------------------+&lt;/font&gt;&lt;/div&gt;&lt;div style=&quot;text-align: left;&quot;&gt;&lt;font size=&quot;1&quot;&gt;| encounter_count&amp;nbsp; &amp;nbsp;|&lt;/font&gt;&lt;/div&gt;&lt;div style=&quot;text-align: left;&quot;&gt;&lt;font size=&quot;1&quot;&gt;+------------------------+&lt;/font&gt;&lt;/div&gt;&lt;div style=&quot;text-align: left;&quot;&gt;&lt;font size=&quot;1&quot;&gt;| 11&amp;nbsp; &amp;nbsp; &amp;nbsp; &amp;nbsp; &amp;nbsp; &amp;nbsp; &amp;nbsp; &amp;nbsp; &amp;nbsp; &amp;nbsp; &amp;nbsp; &amp;nbsp; &amp;nbsp; |&lt;/font&gt;&lt;/div&gt;&lt;div style=&quot;text-align: left;&quot;&gt;&lt;font size=&quot;1&quot;&gt;+------------------------+&lt;/font&gt;&lt;/div&gt;" style="rounded=1;whiteSpace=wrap;html=1;fillColor=#f5f5f5;fontColor=#333333;strokeColor=#666666;" vertex="1" parent="1">
          <mxGeometry x="685" y="340" width="130" height="100" as="geometry" />
        </mxCell>
        <mxCell id="2Vbw8zLCdz-sCToTA-tu-18" value="Feedback Loop&lt;br&gt;&lt;font style=&quot;font-size: 8px;&quot;&gt;(Failed Validation)&lt;/font&gt;" style="text;html=1;align=center;verticalAlign=middle;resizable=0;points=[];autosize=1;strokeColor=none;fillColor=none;fontSize=10;fontColor=#FF3333;" vertex="1" parent="1">
          <mxGeometry x="310" y="290" width="90" height="40" as="geometry" />
        </mxCell>
      </root>
    </mxGraphModel>
  </diagram>
</mxfile>
